<svg width="25" height="25" viewBox="0 0 25 25" fill="none" xmlns="http://www.w3.org/2000/svg">
<g id="Outlined / Add">
<g id="Vector">
<path d="M13.2692 9.42308C13.2692 8.99824 12.9248 8.65385 12.5 8.65385C12.0752 8.65385 11.7308 8.99824 11.7308 9.42308V11.7308H9.42308C8.99824 11.7308 8.65385 12.0752 8.65385 12.5C8.65385 12.9248 8.99824 13.2692 9.42308 13.2692H11.7308V15.5769C11.7308 16.0018 12.0752 16.3462 12.5 16.3462C12.9248 16.3462 13.2692 16.0018 13.2692 15.5769V13.2692H15.5769C16.0018 13.2692 16.3462 12.9248 16.3462 12.5C16.3462 12.0752 16.0018 11.7308 15.5769 11.7308H13.2692V9.42308Z" fill="#667085"/>
<path fill-rule="evenodd" clip-rule="evenodd" d="M17.078 2.6269C15.9066 2.49999 14.43 2.49999 12.5464 2.5H12.4536C10.57 2.49999 9.09345 2.49999 7.92203 2.6269C6.7266 2.75642 5.75801 3.02546 4.93101 3.62631C4.43035 3.99006 3.99006 4.43035 3.62631 4.93101C3.02546 5.75801 2.75642 6.7266 2.6269 7.92203C2.49999 9.09345 2.49999 10.57 2.5 12.4536V12.5464C2.49999 14.43 2.49999 15.9066 2.6269 17.078C2.75642 18.2734 3.02546 19.242 3.62631 20.069C3.99006 20.5697 4.43035 21.0099 4.93101 21.3737C5.75801 21.9745 6.7266 22.2436 7.92203 22.3731C9.09343 22.5 10.5699 22.5 12.4535 22.5H12.5464C14.43 22.5 15.9066 22.5 17.078 22.3731C18.2734 22.2436 19.242 21.9745 20.069 21.3737C20.5697 21.0099 21.0099 20.5697 21.3737 20.069C21.9745 19.242 22.2436 18.2734 22.3731 17.078C22.5 15.9066 22.5 14.4301 22.5 12.5465V12.4536C22.5 10.57 22.5 9.09343 22.3731 7.92203C22.2436 6.7266 21.9745 5.75801 21.3737 4.93101C21.0099 4.43035 20.5697 3.99006 20.069 3.62631C19.242 3.02546 18.2734 2.75642 17.078 2.6269ZM5.8353 4.87095C6.35633 4.4924 7.02321 4.27175 8.08774 4.15641C9.16666 4.03952 10.5599 4.03846 12.5 4.03846C14.4401 4.03846 15.8333 4.03952 16.9123 4.15641C17.9768 4.27175 18.6437 4.4924 19.1647 4.87095C19.5348 5.13981 19.8602 5.46524 20.1291 5.8353C20.5076 6.35633 20.7283 7.02321 20.8436 8.08774C20.9605 9.16666 20.9615 10.5599 20.9615 12.5C20.9615 14.4401 20.9605 15.8333 20.8436 16.9123C20.7283 17.9768 20.5076 18.6437 20.1291 19.1647C19.8602 19.5348 19.5348 19.8602 19.1647 20.1291C18.6437 20.5076 17.9768 20.7283 16.9123 20.8436C15.8333 20.9605 14.4401 20.9615 12.5 20.9615C10.5599 20.9615 9.16666 20.9605 8.08774 20.8436C7.02321 20.7283 6.35633 20.5076 5.8353 20.1291C5.46524 19.8602 5.13981 19.5348 4.87095 19.1647C4.4924 18.6437 4.27175 17.9768 4.15641 16.9123C4.03952 15.8333 4.03846 14.4401 4.03846 12.5C4.03846 10.5599 4.03952 9.16666 4.15641 8.08774C4.27175 7.02321 4.4924 6.35633 4.87095 5.8353C5.13981 5.46524 5.46524 5.13981 5.8353 4.87095Z" fill="#667085"/>
</g>
</g>
</svg>
