<svg width="12" height="12" viewBox="0 0 12 12" fill="none" xmlns="http://www.w3.org/2000/svg">
<g id="Message 18">
<g id="Vector">
<path d="M1.7385 2.95558C2.13461 2.92115 2.6356 2.92115 3.30868 2.92115H4.24876C5.565 2.92115 6.22312 2.92115 6.72585 3.17864C7.16807 3.40513 7.52761 3.76653 7.75293 4.21104C8.00909 4.71639 8.00909 5.37792 8.00909 6.70098V7.97612C8.00909 8.10824 8.00909 8.1743 8.00646 8.23013C7.96536 9.10271 7.45575 9.85017 6.72432 10.2245L7.44937 10.7417C7.92263 11.0793 8.54453 10.5918 8.32853 10.0525C8.17552 9.67052 8.45724 9.255 8.86922 9.255H9.18743C10.2889 9.255 11.1819 8.36329 11.1819 7.26332V5.03048C11.1819 3.55176 11.1819 2.81241 10.8937 2.24761C10.6402 1.7508 10.2357 1.34688 9.73822 1.09375C9.17264 0.805969 8.43226 0.805969 6.95149 0.805969H5.8939C4.41314 0.805969 3.67275 0.805969 3.10717 1.09375C2.60968 1.34688 2.2052 1.7508 1.95171 2.24761C1.84749 2.45187 1.78097 2.67895 1.7385 2.95558Z" fill="#2FAA07"/>
<path fill-rule="evenodd" clip-rule="evenodd" d="M7.25615 4.58809C7.48029 5.03398 7.48029 5.61768 7.48029 6.78509V7.91022C7.48029 8.02679 7.48029 8.08508 7.47799 8.13434C7.42784 9.20807 6.5804 10.0671 5.52111 10.1179C5.47251 10.1202 5.40836 10.1202 5.28006 10.1202L5.24714 10.1203C4.82753 10.123 4.41878 10.2558 4.07577 10.5008L4.05396 10.5165L2.9802 11.2939C2.61211 11.5605 2.12841 11.1756 2.29641 10.7498C2.41541 10.4483 2.1963 10.1202 1.87587 10.1202H1.62838C0.771657 10.1202 0.0771484 9.41626 0.0771484 8.54786V6.78509C0.0771484 5.61768 0.0771484 5.03398 0.301286 4.58809C0.498442 4.19587 0.813036 3.87699 1.19998 3.67714C1.63987 3.44995 2.21573 3.44995 3.36743 3.44995H4.19001C5.34171 3.44995 5.91757 3.44995 6.35746 3.67714C6.7444 3.87699 7.059 4.19587 7.25615 4.58809ZM2.19233 7.68032C2.48438 7.68032 2.72113 7.44357 2.72113 7.15152C2.72113 6.85947 2.48438 6.62272 2.19233 6.62272C1.90029 6.62272 1.66354 6.85947 1.66354 7.15152C1.66354 7.44357 1.90029 7.68032 2.19233 7.68032ZM4.30752 7.15152C4.30752 7.44357 4.07077 7.68032 3.77872 7.68032C3.48667 7.68032 3.24992 7.44357 3.24992 7.15152C3.24992 6.85947 3.48667 6.62272 3.77872 6.62272C4.07077 6.62272 4.30752 6.85947 4.30752 7.15152ZM5.36511 7.68032C5.65715 7.68032 5.8939 7.44357 5.8939 7.15152C5.8939 6.85947 5.65715 6.62272 5.36511 6.62272C5.07306 6.62272 4.83631 6.85947 4.83631 7.15152C4.83631 7.44357 5.07306 7.68032 5.36511 7.68032Z" fill="#2FAA07"/>
</g>
</g>
</svg>
