<svg width="19" height="18" viewBox="0 0 19 18" fill="none" xmlns="http://www.w3.org/2000/svg">
<g id="Component 9">
<path id="Vector" d="M16.085 11.625H2.915C2.40966 11.625 2 12.0347 2 12.54V12.96C2 13.4653 2.40966 13.875 2.915 13.875H16.085C16.5903 13.875 17 13.4653 17 12.96V12.54C17 12.0347 16.5903 11.625 16.085 11.625Z" stroke="#1A5E04" stroke-linecap="round" stroke-linejoin="round"/>
<path id="Vector_2" d="M10.625 4.98V4.6575C10.625 4.58757 10.6112 4.51833 10.5845 4.45372C10.5577 4.38912 10.5185 4.33041 10.469 4.28097C10.4196 4.23152 10.3609 4.19229 10.2963 4.16553C10.2317 4.13877 10.1624 4.125 10.0925 4.125H8.9075C8.76627 4.125 8.63083 4.1811 8.53097 4.28097C8.4311 4.38083 8.375 4.51627 8.375 4.6575V4.98C6.90367 5.24379 5.57182 6.01621 4.61219 7.16228C3.65255 8.30836 3.12616 9.75521 3.125 11.25V11.625H15.875V11.25C15.8738 9.75521 15.3474 8.30836 14.3878 7.16228C13.4282 6.01621 12.0963 5.24379 10.625 4.98Z" stroke="#1A5E04" stroke-linecap="round" stroke-linejoin="round"/>
<path id="Vector_3" d="M8.375 7.635V4.875" stroke="#1A5E04" stroke-linecap="round" stroke-linejoin="round"/>
<path id="Vector_4" d="M10.625 9.61499V11.625H8.375V9.61499" stroke="#1A5E04" stroke-linecap="round" stroke-linejoin="round"/>
<path id="Vector_5" d="M10.625 7.635V4.875" stroke="#1A5E04" stroke-linecap="round" stroke-linejoin="round"/>
<path id="Vector_6" d="M11 8.62504C11.0005 8.9762 10.8778 9.31641 10.6532 9.58639C10.4287 9.85637 10.1165 10.039 9.77115 10.1025C9.42577 10.166 9.06907 10.1063 8.76319 9.93377C8.45732 9.76127 8.22165 9.48693 8.09726 9.15854C7.97287 8.83015 7.96764 8.46852 8.08247 8.13667C8.19731 7.80482 8.42494 7.52377 8.7257 7.3425C9.02645 7.16123 9.38128 7.09123 9.72835 7.14468C10.0754 7.19814 10.3927 7.37167 10.625 7.63504C10.8662 7.9085 10.9995 8.26043 11 8.62504Z" stroke="#1A5E04" stroke-linecap="round" stroke-linejoin="round"/>
</g>
</svg>
