<svg width="19" height="21" viewBox="0 0 19 21" fill="none" xmlns="http://www.w3.org/2000/svg">
<g id="Document Justify Center 2">
<path id="Vector" fill-rule="evenodd" clip-rule="evenodd" d="M1.45394 2.56107C0.499023 3.8754 0.499023 5.75027 0.499023 9.5V11.5C0.499023 15.2497 0.499023 17.1246 1.45394 18.4389C1.76234 18.8634 2.13562 19.2367 2.5601 19.5451C3.87442 20.5 5.74929 20.5 9.49902 20.5C13.2488 20.5 15.1236 20.5 16.4379 19.5451C16.8624 19.2367 17.2357 18.8634 17.5441 18.4389C18.499 17.1246 18.499 15.2497 18.499 11.5V9.5C18.499 5.75027 18.499 3.8754 17.5441 2.56107C17.2357 2.1366 16.8624 1.76331 16.4379 1.45492C15.1236 0.5 13.2488 0.5 9.49902 0.5C5.74929 0.5 3.87442 0.5 2.5601 1.45492C2.13562 1.76331 1.76234 2.1366 1.45394 2.56107ZM5.49902 5.75C5.08481 5.75 4.74902 6.08579 4.74902 6.5C4.74902 6.91421 5.08481 7.25 5.49902 7.25H13.499C13.9132 7.25 14.249 6.91421 14.249 6.5C14.249 6.08579 13.9132 5.75 13.499 5.75H5.49902ZM5.49902 9.75C5.08481 9.75 4.74902 10.0858 4.74902 10.5C4.74902 10.9142 5.08481 11.25 5.49902 11.25H13.499C13.9132 11.25 14.249 10.9142 14.249 10.5C14.249 10.0858 13.9132 9.75 13.499 9.75H5.49902ZM5.49902 13.75C5.08481 13.75 4.74902 14.0858 4.74902 14.5C4.74902 14.9142 5.08481 15.25 5.49902 15.25H13.499C13.9132 15.25 14.249 14.9142 14.249 14.5C14.249 14.0858 13.9132 13.75 13.499 13.75H5.49902Z" fill="#2FAA07"/>
</g>
</svg>
