<svg width="21" height="23" viewBox="0 0 21 23" fill="none" xmlns="http://www.w3.org/2000/svg">
<g id="Document Justify Center 2">
<g id="Vector">
<path d="M6.50073 6.74951C6.08652 6.74951 5.75073 7.0853 5.75073 7.49951C5.75073 7.91373 6.08652 8.24951 6.50073 8.24951H14.5007C14.9149 8.24951 15.2507 7.91373 15.2507 7.49951C15.2507 7.0853 14.9149 6.74951 14.5007 6.74951H6.50073Z" fill="#667085"/>
<path d="M6.50073 10.7495C6.08652 10.7495 5.75073 11.0853 5.75073 11.4995C5.75073 11.9137 6.08652 12.2495 6.50073 12.2495H14.5007C14.9149 12.2495 15.2507 11.9137 15.2507 11.4995C15.2507 11.0853 14.9149 10.7495 14.5007 10.7495H6.50073Z" fill="#667085"/>
<path d="M6.50073 14.7495C6.08652 14.7495 5.75073 15.0853 5.75073 15.4995C5.75073 15.9137 6.08652 16.2495 6.50073 16.2495H14.5007C14.9149 16.2495 15.2507 15.9137 15.2507 15.4995C15.2507 15.0853 14.9149 14.7495 14.5007 14.7495H6.50073Z" fill="#667085"/>
<path fill-rule="evenodd" clip-rule="evenodd" d="M14.9643 0.87324C13.8221 0.749497 12.3825 0.749504 10.546 0.749512H10.4555C8.61895 0.749504 7.17934 0.749497 6.03721 0.87324C4.87167 0.999518 3.92729 1.26184 3.12097 1.84766C2.63282 2.20232 2.20354 2.6316 1.84888 3.11975C1.26306 3.92607 1.00074 4.87045 0.874461 6.03599C0.750718 7.17812 0.750724 8.61773 0.750733 10.4543V12.5448C0.750724 14.3813 0.750718 15.8209 0.874461 16.963C1.00074 18.1286 1.26306 19.073 1.84888 19.8793C2.20354 20.3674 2.63282 20.7967 3.12097 21.1514C3.92729 21.7372 4.87167 21.9995 6.03721 22.1258C7.17932 22.2495 8.6189 22.2495 10.4554 22.2495H10.546C12.3825 22.2495 13.8221 22.2495 14.9643 22.1258C16.1298 21.9995 17.0742 21.7372 17.8805 21.1514C18.3686 20.7967 18.7979 20.3674 19.1526 19.8793C19.7384 19.073 20.0007 18.1286 20.127 16.963C20.2507 15.8209 20.2507 14.3813 20.2507 12.5449V10.4542C20.2507 8.61775 20.2507 7.1781 20.127 6.03599C20.0007 4.87045 19.7384 3.92607 19.1526 3.11975C18.7979 2.6316 18.3686 2.20232 17.8805 1.84766C17.0742 1.26184 16.1298 0.999518 14.9643 0.87324ZM4.00265 3.06119C4.51065 2.6921 5.16087 2.47696 6.19878 2.36451C7.25072 2.25054 8.60916 2.24951 10.5007 2.24951C12.3923 2.24951 13.7507 2.25054 14.8027 2.36451C15.8406 2.47696 16.4908 2.6921 16.9988 3.06119C17.3596 3.32333 17.6769 3.64062 17.9391 4.00142C18.3081 4.50943 18.5233 5.15965 18.6357 6.19756C18.7497 7.2495 18.7507 8.60794 18.7507 10.4995V12.4995C18.7507 14.3911 18.7497 15.7495 18.6357 16.8015C18.5233 17.8394 18.3081 18.4896 17.9391 18.9976C17.6769 19.3584 17.3596 19.6757 16.9988 19.9378C16.4908 20.3069 15.8406 20.5221 14.8027 20.6345C13.7507 20.7485 12.3923 20.7495 10.5007 20.7495C8.60916 20.7495 7.25072 20.7485 6.19878 20.6345C5.16086 20.5221 4.51065 20.3069 4.00265 19.9378C3.64184 19.6757 3.32455 19.3584 3.06241 18.9976C2.69332 18.4896 2.47818 17.8394 2.36573 16.8015C2.25176 15.7495 2.25073 14.3911 2.25073 12.4995V10.4995C2.25073 8.60794 2.25176 7.2495 2.36573 6.19756C2.47818 5.15965 2.69332 4.50943 3.06241 4.00142C3.32455 3.64062 3.64184 3.32333 4.00265 3.06119Z" fill="#667085"/>
</g>
</g>
</svg>
