<svg width="48" height="49" viewBox="0 0 48 49" fill="none" xmlns="http://www.w3.org/2000/svg">
<g id="Component 9" clip-path="url(#clip0_262_14432)">
<path id="Vector" d="M41.56 31.1647H6.44C5.09243 31.1647 4 32.2571 4 33.6047V34.7247C4 36.0722 5.09243 37.1647 6.44 37.1647H41.56C42.9076 37.1647 44 36.0722 44 34.7247V33.6047C44 32.2571 42.9076 31.1647 41.56 31.1647Z" stroke="#2FAA07" stroke-width="2" stroke-linecap="round" stroke-linejoin="round"/>
<path id="Vector_2" d="M27 13.4447V12.5847C27 12.3982 26.9633 12.2135 26.8919 12.0413C26.8205 11.869 26.716 11.7124 26.5841 11.5806C26.4522 11.4487 26.2957 11.3441 26.1234 11.2728C25.9511 11.2014 25.7665 11.1647 25.58 11.1647H22.42C22.0434 11.1647 21.6822 11.3143 21.4159 11.5806C21.1496 11.8469 21 12.2081 21 12.5847V13.4447C17.0765 14.1481 13.5249 16.2079 10.9658 19.2641C8.4068 22.3203 7.0031 26.1786 7 30.1647V31.1647H41V30.1647C40.9969 26.1786 39.5932 22.3203 37.0342 19.2641C34.4751 16.2079 30.9235 14.1481 27 13.4447Z" stroke="#2FAA07" stroke-width="2" stroke-linecap="round" stroke-linejoin="round"/>
<path id="Vector_3" d="M21 20.5247V13.1647" stroke="#2FAA07" stroke-width="2" stroke-linecap="round" stroke-linejoin="round"/>
<path id="Vector_4" d="M27 25.8047V31.1647H21V25.8047" stroke="#2FAA07" stroke-width="2" stroke-linecap="round" stroke-linejoin="round"/>
<path id="Vector_5" d="M27 20.5247V13.1647" stroke="#2FAA07" stroke-width="2" stroke-linecap="round" stroke-linejoin="round"/>
<path id="Vector_6" d="M28 23.1647C28.0013 24.1011 27.6741 25.0083 27.0753 25.7283C26.4765 26.4482 25.6441 26.9353 24.7231 27.1045C23.8021 27.2738 22.8509 27.1146 22.0352 26.6546C21.2195 26.1946 20.5911 25.463 20.2594 24.5873C19.9277 23.7116 19.9137 22.7473 20.2199 21.8623C20.5262 20.9774 21.1332 20.2279 21.9352 19.7446C22.7372 19.2612 23.6834 19.0745 24.6089 19.217C25.5344 19.3596 26.3806 19.8223 27 20.5247C27.6431 21.2539 27.9986 22.1924 28 23.1647Z" stroke="#2FAA07" stroke-width="2" stroke-linecap="round" stroke-linejoin="round"/>
<path id="Vector_7" d="M534 -9.83533H-146V670.165H534V-9.83533Z" stroke="#2FAA07" stroke-width="2" stroke-linecap="round" stroke-linejoin="round"/>
</g>
<defs>
<clipPath id="clip0_262_14432">
<rect width="48" height="48" fill="white" transform="translate(0 0.164673)"/>
</clipPath>
</defs>
</svg>
