<svg width="25" height="24" viewBox="0 0 25 24" fill="none" xmlns="http://www.w3.org/2000/svg">
<g id="alert-triangle">
<path id="Icon" d="M12.4998 7.99996V12M12.4998 16H12.5098M10.7898 2.85996L2.31978 17C2.14514 17.3024 2.05274 17.6453 2.05177 17.9945C2.05079 18.3437 2.14127 18.6871 2.3142 18.9905C2.48714 19.2939 2.7365 19.5467 3.03748 19.7238C3.33847 19.9009 3.68058 19.9961 4.02978 20H20.9698C21.319 19.9961 21.6611 19.9009 21.9621 19.7238C22.2631 19.5467 22.5124 19.2939 22.6854 18.9905C22.8583 18.6871 22.9488 18.3437 22.9478 17.9945C22.9468 17.6453 22.8544 17.3024 22.6798 17L14.2098 2.85996C14.0315 2.56607 13.7805 2.32308 13.481 2.15444C13.1814 1.98581 12.8435 1.89722 12.4998 1.89722C12.156 1.89722 11.8181 1.98581 11.5186 2.15444C11.2191 2.32308 10.968 2.56607 10.7898 2.85996Z" stroke="#DC6803" stroke-width="2" stroke-linecap="round" stroke-linejoin="round"/>
</g>
</svg>
