<svg width="48" height="49" viewBox="0 0 48 49" fill="none" xmlns="http://www.w3.org/2000/svg">
<g id="Component 9" clip-path="url(#clip0_262_14459)">
<g id="Document Align Right 10">
<g id="Vector">
<path d="M25.641 16.2051C24.9613 16.2051 24.4103 16.7562 24.4103 17.4359C24.4103 18.1156 24.9613 18.6667 25.641 18.6667H30.5641C31.2438 18.6667 31.7949 18.1156 31.7949 17.4359C31.7949 16.7562 31.2438 16.2051 30.5641 16.2051H25.641Z" fill="#2FAA07"/>
<path d="M17.4359 22.7692C16.7562 22.7692 16.2051 23.3203 16.2051 24C16.2051 24.6797 16.7562 25.2308 17.4359 25.2308H30.5641C31.2438 25.2308 31.7949 24.6797 31.7949 24C31.7949 23.3203 31.2438 22.7692 30.5641 22.7692H17.4359Z" fill="#2FAA07"/>
<path d="M25.641 29.3333C24.9613 29.3333 24.4103 29.8844 24.4103 30.5641C24.4103 31.2438 24.9613 31.7949 25.641 31.7949H30.5641C31.2438 31.7949 31.7949 31.2438 31.7949 30.5641C31.7949 29.8844 31.2438 29.3333 30.5641 29.3333H25.641Z" fill="#2FAA07"/>
<path fill-rule="evenodd" clip-rule="evenodd" d="M31.3248 8.20304C29.4505 7.99998 27.0881 7.99999 24.0743 8H23.9257C20.9119 7.99999 18.5495 7.99998 16.6752 8.20304C14.7626 8.41027 13.2128 8.84074 11.8896 9.8021C11.0886 10.3841 10.3841 11.0886 9.8021 11.8896C8.84074 13.2128 8.41027 14.7626 8.20304 16.6752C7.99998 18.5495 7.99999 20.9119 8 23.9257V24.0182C8 25.9218 8 27.5585 8.04819 28.9652C8.15353 32.0396 8.48623 34.2992 9.8021 36.1104C10.3841 36.9114 11.0886 37.6159 11.8896 38.1979C13.7008 39.5138 15.9604 39.8465 19.0348 39.9518C20.4415 40 22.0782 40 23.9819 40H24.0743C27.088 40 29.4505 40 31.3248 39.797C33.2374 39.5897 34.7872 39.1593 36.1104 38.1979C36.9114 37.6159 37.6159 36.9114 38.1979 36.1104C39.1593 34.7872 39.5897 33.2374 39.797 31.3248C40 29.4505 40 27.0881 40 24.0744V23.9257C40 20.912 40 18.5495 39.797 16.6752C39.5897 14.7626 39.1593 13.2128 38.1979 11.8896C37.6159 11.0886 36.9114 10.3841 36.1104 9.8021C34.7872 8.84074 33.2374 8.41027 31.3248 8.20304ZM13.3365 11.7935C14.1701 11.1878 15.2371 10.8348 16.9404 10.6503C18.6667 10.4632 20.8959 10.4615 24 10.4615C27.1041 10.4615 29.3333 10.4632 31.0596 10.6503C32.7629 10.8348 33.8299 11.1878 34.6635 11.7935C35.2556 12.2237 35.7763 12.7444 36.2065 13.3365C36.8122 14.1701 37.1652 15.2371 37.3497 16.9404C37.5368 18.6667 37.5385 20.8959 37.5385 24C37.5385 27.1041 37.5368 29.3333 37.3497 31.0596C37.1652 32.7629 36.8122 33.8299 36.2065 34.6635C35.7763 35.2556 35.2556 35.7763 34.6635 36.2065C33.8299 36.8122 32.7629 37.1652 31.0596 37.3497C29.3333 37.5368 27.1041 37.5385 24 37.5385C22.6078 37.5385 21.3878 37.5384 20.3047 37.5207C20.2975 36.7418 20.2733 36.1684 20.1915 35.6521C19.552 31.6146 16.3854 28.448 12.3479 27.8085C11.8316 27.7267 11.2582 27.7025 10.4793 27.6953C10.4616 26.6122 10.4615 25.3922 10.4615 24C10.4615 20.8959 10.4632 18.6667 10.6503 16.9404C10.8348 15.2371 11.1878 14.1701 11.7935 13.3365C12.2237 12.7444 12.7444 12.2237 13.3365 11.7935ZM17.7603 36.0372C17.8136 36.3736 17.8339 36.7633 17.8416 37.4278C15.6092 37.2739 14.3202 36.9212 13.3365 36.2065C12.7444 35.7763 12.2237 35.2556 11.7935 34.6635C11.0788 33.6798 10.7261 32.3908 10.5722 30.1584C11.2367 30.1661 11.6264 30.1864 11.9628 30.2397C14.9471 30.7124 17.2876 33.0529 17.7603 36.0372Z" fill="#2FAA07"/>
<path d="M25.641 16.2051C24.9613 16.2051 24.4103 16.7562 24.4103 17.4359C24.4103 18.1156 24.9613 18.6667 25.641 18.6667H30.5641C31.2438 18.6667 31.7949 18.1156 31.7949 17.4359C31.7949 16.7562 31.2438 16.2051 30.5641 16.2051H25.641Z" stroke="white" stroke-width="0.15" stroke-linecap="round"/>
<path d="M17.4359 22.7692C16.7562 22.7692 16.2051 23.3203 16.2051 24C16.2051 24.6797 16.7562 25.2308 17.4359 25.2308H30.5641C31.2438 25.2308 31.7949 24.6797 31.7949 24C31.7949 23.3203 31.2438 22.7692 30.5641 22.7692H17.4359Z" stroke="white" stroke-width="0.15" stroke-linecap="round"/>
<path d="M25.641 29.3333C24.9613 29.3333 24.4103 29.8844 24.4103 30.5641C24.4103 31.2438 24.9613 31.7949 25.641 31.7949H30.5641C31.2438 31.7949 31.7949 31.2438 31.7949 30.5641C31.7949 29.8844 31.2438 29.3333 30.5641 29.3333H25.641Z" stroke="white" stroke-width="0.15" stroke-linecap="round"/>
<path fill-rule="evenodd" clip-rule="evenodd" d="M31.3248 8.20304C29.4505 7.99998 27.0881 7.99999 24.0743 8H23.9257C20.9119 7.99999 18.5495 7.99998 16.6752 8.20304C14.7626 8.41027 13.2128 8.84074 11.8896 9.8021C11.0886 10.3841 10.3841 11.0886 9.8021 11.8896C8.84074 13.2128 8.41027 14.7626 8.20304 16.6752C7.99998 18.5495 7.99999 20.9119 8 23.9257V24.0182C8 25.9218 8 27.5585 8.04819 28.9652C8.15353 32.0396 8.48623 34.2992 9.8021 36.1104C10.3841 36.9114 11.0886 37.6159 11.8896 38.1979C13.7008 39.5138 15.9604 39.8465 19.0348 39.9518C20.4415 40 22.0782 40 23.9819 40H24.0743C27.088 40 29.4505 40 31.3248 39.797C33.2374 39.5897 34.7872 39.1593 36.1104 38.1979C36.9114 37.6159 37.6159 36.9114 38.1979 36.1104C39.1593 34.7872 39.5897 33.2374 39.797 31.3248C40 29.4505 40 27.0881 40 24.0744V23.9257C40 20.912 40 18.5495 39.797 16.6752C39.5897 14.7626 39.1593 13.2128 38.1979 11.8896C37.6159 11.0886 36.9114 10.3841 36.1104 9.8021C34.7872 8.84074 33.2374 8.41027 31.3248 8.20304ZM13.3365 11.7935C14.1701 11.1878 15.2371 10.8348 16.9404 10.6503C18.6667 10.4632 20.8959 10.4615 24 10.4615C27.1041 10.4615 29.3333 10.4632 31.0596 10.6503C32.7629 10.8348 33.8299 11.1878 34.6635 11.7935C35.2556 12.2237 35.7763 12.7444 36.2065 13.3365C36.8122 14.1701 37.1652 15.2371 37.3497 16.9404C37.5368 18.6667 37.5385 20.8959 37.5385 24C37.5385 27.1041 37.5368 29.3333 37.3497 31.0596C37.1652 32.7629 36.8122 33.8299 36.2065 34.6635C35.7763 35.2556 35.2556 35.7763 34.6635 36.2065C33.8299 36.8122 32.7629 37.1652 31.0596 37.3497C29.3333 37.5368 27.1041 37.5385 24 37.5385C22.6078 37.5385 21.3878 37.5384 20.3047 37.5207C20.2975 36.7418 20.2733 36.1684 20.1915 35.6521C19.552 31.6146 16.3854 28.448 12.3479 27.8085C11.8316 27.7267 11.2582 27.7025 10.4793 27.6953C10.4616 26.6122 10.4615 25.3922 10.4615 24C10.4615 20.8959 10.4632 18.6667 10.6503 16.9404C10.8348 15.2371 11.1878 14.1701 11.7935 13.3365C12.2237 12.7444 12.7444 12.2237 13.3365 11.7935ZM17.7603 36.0372C17.8136 36.3736 17.8339 36.7633 17.8416 37.4278C15.6092 37.2739 14.3202 36.9212 13.3365 36.2065C12.7444 35.7763 12.2237 35.2556 11.7935 34.6635C11.0788 33.6798 10.7261 32.3908 10.5722 30.1584C11.2367 30.1661 11.6264 30.1864 11.9628 30.2397C14.9471 30.7124 17.2876 33.0529 17.7603 36.0372Z" stroke="white" stroke-width="0.15" stroke-linecap="round"/>
</g>
</g>
<path id="Vector_2" d="M534 -9.83533H-146V670.165H534V-9.83533Z" stroke="#2FAA07" stroke-width="2" stroke-linecap="round" stroke-linejoin="round"/>
</g>
<defs>
<clipPath id="clip0_262_14459">
<rect width="48" height="48" fill="white" transform="translate(0 0.164673)"/>
</clipPath>
</defs>
</svg>
