<svg width="21" height="21" viewBox="0 0 21 21" fill="none" xmlns="http://www.w3.org/2000/svg">
<g id="edit-02">
<path id="Icon" d="M15.4987 8.83326L12.1654 5.49993M2.58203 18.4166L5.40234 18.1032C5.74691 18.0649 5.9192 18.0458 6.08024 17.9937C6.22311 17.9474 6.35907 17.8821 6.48444 17.7994C6.62574 17.7062 6.74832 17.5836 6.99347 17.3385L17.9987 6.33326C18.9192 5.41279 18.9192 3.9204 17.9987 2.99993C17.0782 2.07945 15.5859 2.07945 14.6654 2.99992L3.66014 14.0052C3.41499 14.2503 3.29241 14.3729 3.19923 14.5142C3.11656 14.6396 3.05121 14.7755 3.00496 14.9184C2.95283 15.0794 2.93368 15.2517 2.8954 15.5963L2.58203 18.4166Z" stroke="#2FAA07" stroke-width="2" stroke-linecap="round" stroke-linejoin="round"/>
</g>
</svg>
