<svg width="24" height="25" viewBox="0 0 24 25" fill="none" xmlns="http://www.w3.org/2000/svg">
<g id="Social icon" clip-path="url(#clip0_670_1139)">
<path id="Vector" d="M23.7663 12.6669C23.7663 11.8511 23.7001 11.031 23.559 10.2285H12.2402V14.8495H18.722C18.453 16.3399 17.5888 17.6582 16.3233 18.496V21.4944H20.1903C22.4611 19.4043 23.7663 16.3178 23.7663 12.6669Z" fill="#4285F4"/>
<path id="Vector_2" d="M12.2401 24.3913C15.4766 24.3913 18.2059 23.3287 20.1945 21.4944L16.3276 18.4961C15.2517 19.228 13.8627 19.6425 12.2445 19.6425C9.11388 19.6425 6.45946 17.5304 5.50705 14.6908H1.5166V17.7817C3.55371 21.8339 7.7029 24.3913 12.2401 24.3913Z" fill="#34A853"/>
<path id="Vector_3" d="M5.50277 14.6908C5.00011 13.2005 5.00011 11.5867 5.50277 10.0963V7.00537H1.51674C-0.185266 10.3961 -0.185266 14.391 1.51674 17.7818L5.50277 14.6908Z" fill="#FBBC04"/>
<path id="Vector_4" d="M12.2401 5.14016C13.9509 5.11371 15.6044 5.75747 16.8434 6.93917L20.2695 3.51312C18.1001 1.47601 15.2208 0.356037 12.2401 0.391312C7.7029 0.391312 3.55371 2.94872 1.5166 7.00531L5.50264 10.0963C6.45064 7.25223 9.10947 5.14016 12.2401 5.14016Z" fill="#EA4335"/>
</g>
<defs>
<clipPath id="clip0_670_1139">
<rect width="24" height="24" fill="white" transform="translate(0 0.390503)"/>
</clipPath>
</defs>
</svg>
