<svg width="23" height="23" viewBox="0 0 23 23" fill="none" xmlns="http://www.w3.org/2000/svg">
<g id="Home 2">
<g id="Vector">
<path d="M9.50049 16.5681C9.08628 16.5681 8.75049 16.9039 8.75049 17.3181C8.75049 17.7323 9.08628 18.0681 9.50049 18.0681H13.5005C13.9147 18.0681 14.2505 17.7323 14.2505 17.3181C14.2505 16.9039 13.9147 16.5681 13.5005 16.5681H9.50049Z" fill="#667085"/>
<path fill-rule="evenodd" clip-rule="evenodd" d="M11.7113 0.752278C11.5708 0.747125 11.4302 0.747125 11.2897 0.752278C10.3623 0.786299 9.52725 1.10165 8.61164 1.62659C7.71937 2.13815 6.69213 2.88449 5.38875 3.83146L5.3179 3.88294C4.01451 4.8299 2.98725 5.57624 2.22499 6.26676C1.44281 6.97534 0.884841 7.67209 0.56591 8.54357C0.517597 8.67558 0.474141 8.80932 0.435631 8.94452C0.181411 9.83702 0.223274 10.7287 0.439584 11.7617C0.650382 12.7684 1.04276 13.976 1.54062 15.5082L1.56769 15.5915C2.06552 17.1237 2.45789 18.3313 2.87907 19.2696C3.31126 20.2325 3.80149 20.9785 4.53175 21.5511C4.64238 21.6378 4.75615 21.7205 4.87283 21.7989C5.64309 22.3165 6.50403 22.5522 7.55333 22.6657C8.57588 22.7763 9.84562 22.7763 11.4567 22.7763H11.5443C13.1554 22.7763 14.4251 22.7763 15.4477 22.6657C16.497 22.5522 17.3579 22.3165 18.1282 21.7989C18.2448 21.7205 18.3586 21.6378 18.4692 21.5511C19.1995 20.9785 19.6897 20.2325 20.1219 19.2696C20.5431 18.3313 20.9355 17.1237 21.4333 15.5914L21.4604 15.5081C21.9582 13.976 22.3506 12.7683 22.5614 11.7617C22.7777 10.7287 22.8196 9.83702 22.5654 8.94452C22.5268 8.80933 22.4834 8.67558 22.4351 8.54357C22.1161 7.67209 21.5582 6.97534 20.776 6.26676C20.0137 5.57623 18.9865 4.8299 17.6831 3.88293L17.6122 3.83144C16.3088 2.88448 15.2816 2.13815 14.3893 1.62659C13.4737 1.10165 12.6387 0.786299 11.7113 0.752278ZM11.3447 2.25127C11.4485 2.24746 11.5525 2.24746 11.6563 2.25127C12.2517 2.27311 12.8448 2.47009 13.6433 2.92789C14.457 3.39444 15.4194 4.09238 16.766 5.07073C18.1126 6.04909 19.0737 6.74867 19.7689 7.37844C20.4511 7.99639 20.8217 8.49954 21.0264 9.05908C21.0622 9.15665 21.0943 9.2555 21.1227 9.35544C21.286 9.92848 21.2819 10.5534 21.0932 11.4543C20.901 12.3724 20.5346 13.5033 20.0202 15.0863C19.5059 16.6693 19.1376 17.7996 18.7535 18.6554C18.3765 19.4951 18.0125 20.003 17.5437 20.3707C17.4619 20.4348 17.3778 20.4959 17.2916 20.5539C16.797 20.8862 16.2014 21.0754 15.2864 21.1744C14.3538 21.2753 13.165 21.2763 11.5005 21.2763C9.83601 21.2763 8.64722 21.2753 7.71463 21.1744C6.79954 21.0754 6.20398 20.8862 5.70943 20.5539C5.62318 20.4959 5.53909 20.4348 5.45733 20.3707C4.98845 20.003 4.62445 19.4951 4.24753 18.6554C3.86341 17.7996 3.49509 16.6693 2.98074 15.0863C2.46638 13.5033 2.09999 12.3724 1.90774 11.4543C1.7191 10.5534 1.71502 9.92848 1.87825 9.35544C1.90671 9.25551 1.93883 9.15665 1.97454 9.05908C2.17932 8.49954 2.54991 7.99639 3.23206 7.37844C3.92724 6.74867 4.8884 6.04909 6.23499 5.07073C7.58159 4.09238 8.54394 3.39444 9.35771 2.92789C10.1562 2.47009 10.7493 2.27311 11.3447 2.25127Z" fill="#667085"/>
</g>
</g>
</svg>
