<svg width="19" height="20" viewBox="0 0 19 20" fill="none" xmlns="http://www.w3.org/2000/svg">
<path fill-rule="evenodd" clip-rule="evenodd" d="M17.9541 3.227C18.499 4.29656 18.499 5.69669 18.499 8.49695V11.1958C18.499 11.4754 18.499 11.6152 18.4934 11.7334C18.3715 14.3089 16.311 16.3694 13.7355 16.4914C13.6173 16.497 13.4613 16.497 13.1494 16.497L13.0693 16.4971C12.0491 16.5036 11.0553 16.8221 10.2213 17.4098L10.1682 17.4475L7.5575 19.3123C6.66252 19.9516 5.48645 19.0284 5.89492 18.0072C6.18427 17.2838 5.65153 16.497 4.87244 16.497H4.27068C2.18765 16.497 0.499023 14.8083 0.499023 12.7253V8.49695C0.499023 5.69669 0.499023 4.29656 1.04399 3.227C1.52336 2.28619 2.28826 1.52128 3.22907 1.04192C4.29863 0.496948 5.69876 0.496948 8.49902 0.496948H10.499C13.2993 0.496948 14.6994 0.496948 15.769 1.04192C16.7098 1.52128 17.4747 2.28619 17.9541 3.227ZM6.49902 8.49695C6.49902 9.04923 6.05131 9.49695 5.49902 9.49695C4.94674 9.49695 4.49902 9.04923 4.49902 8.49695C4.49902 7.94466 4.94674 7.49695 5.49902 7.49695C6.05131 7.49695 6.49902 7.94466 6.49902 8.49695ZM10.499 8.49695C10.499 9.04923 10.0513 9.49695 9.49902 9.49695C8.94674 9.49695 8.49902 9.04923 8.49902 8.49695C8.49902 7.94466 8.94674 7.49695 9.49902 7.49695C10.0513 7.49695 10.499 7.94466 10.499 8.49695ZM13.499 9.49695C14.0513 9.49695 14.499 9.04923 14.499 8.49695C14.499 7.94466 14.0513 7.49695 13.499 7.49695C12.9467 7.49695 12.499 7.94466 12.499 8.49695C12.499 9.04923 12.9467 9.49695 13.499 9.49695Z" fill="#2FAA07"/>
</svg>
