<svg width="25" height="25" viewBox="0 0 25 25" fill="none" xmlns="http://www.w3.org/2000/svg">
<g id="Outlined / Message">
<g id="Vector">
<path fill-rule="evenodd" clip-rule="evenodd" d="M11.4399 2.5H13.5601C14.967 2.5 16.07 2.49999 16.9565 2.56879C17.8592 2.63884 18.6049 2.78385 19.2799 3.11052C20.3896 3.64756 21.2918 4.50447 21.8572 5.55846C22.2012 6.19959 22.3538 6.90792 22.4276 7.76533C22.5 8.60735 22.5 9.655 22.5 10.9913V13.6768C22.5 13.9267 22.5 14.0788 22.4934 14.2114C22.3496 17.0968 19.9193 19.4051 16.8814 19.5417C16.7418 19.548 16.5655 19.548 16.2732 19.548H16.244L16.1668 19.5481C15.2773 19.5535 14.4109 19.8172 13.6839 20.3038L13.6335 20.3379L10.9558 22.1545C9.41272 23.2014 7.38501 21.6896 8.08927 20.0172C8.18393 19.7925 8.00965 19.548 7.75478 19.548H7.1376C4.57632 19.548 2.5 17.5759 2.5 15.1431L2.5 10.9913C2.5 9.65501 2.49999 8.60735 2.57242 7.76533C2.64618 6.90792 2.79885 6.19959 3.14278 5.55846C3.70819 4.50447 4.61038 3.64756 5.72006 3.11052C6.39506 2.78385 7.14082 2.63884 8.04352 2.56879C8.93004 2.49999 10.033 2.5 11.4399 2.5ZM8.1688 4.02519C7.36124 4.08786 6.84048 4.20829 6.4185 4.41251C5.59831 4.80945 4.93147 5.44282 4.51356 6.22186C4.29855 6.62266 4.17176 7.11728 4.10577 7.88432C4.03906 8.65989 4.03846 9.64797 4.03846 11.024V15.1431C4.03846 16.7688 5.42599 18.0867 7.1376 18.0867H7.75478C9.09806 18.0867 10.0166 19.3753 9.5177 20.5599C9.38407 20.8772 9.76881 21.1641 10.0616 20.9655L12.7393 19.1488L12.7977 19.1093C13.7814 18.451 14.9536 18.0942 16.1569 18.0868L16.244 18.0867C16.5739 18.0867 16.7105 18.0865 16.8087 18.0821C19.0541 17.9811 20.8504 16.275 20.9567 14.1423C20.9613 14.0488 20.9615 13.9339 20.9615 13.6531V11.024C20.9615 9.64797 20.9609 8.65989 20.8942 7.88432C20.8282 7.11728 20.7014 6.62266 20.4864 6.22186C20.0685 5.44282 19.4017 4.80945 18.5815 4.41251C18.1595 4.20829 17.6388 4.08786 16.8312 4.02519C16.0146 3.96182 14.9744 3.96126 13.5256 3.96126H11.4744C10.0256 3.96126 8.98535 3.96182 8.1688 4.02519Z" fill="#667085"/>
<path d="M9.42308 11.024C9.42308 11.562 8.96388 11.9982 8.39744 11.9982C7.83099 11.9982 7.3718 11.562 7.3718 11.024C7.3718 10.486 7.83099 10.0498 8.39744 10.0498C8.96388 10.0498 9.42308 10.486 9.42308 11.024Z" fill="#667085"/>
<path d="M13.5256 11.024C13.5256 11.562 13.0664 11.9982 12.5 11.9982C11.9336 11.9982 11.4744 11.562 11.4744 11.024C11.4744 10.486 11.9336 10.0498 12.5 10.0498C13.0664 10.0498 13.5256 10.486 13.5256 11.024Z" fill="#667085"/>
<path d="M17.6282 11.024C17.6282 11.562 17.169 11.9982 16.6026 11.9982C16.0361 11.9982 15.5769 11.562 15.5769 11.024C15.5769 10.486 16.0361 10.0498 16.6026 10.0498C17.169 10.0498 17.6282 10.486 17.6282 11.024Z" fill="#667085"/>
</g>
</g>
</svg>
