<svg width="20" height="21" viewBox="0 0 20 21" fill="none" xmlns="http://www.w3.org/2000/svg">
<g id="more-vertical">
<g id="Icon">
<path d="M10.0001 10.998C10.4603 10.998 10.8334 10.625 10.8334 10.1647C10.8334 9.70448 10.4603 9.33138 10.0001 9.33138C9.53984 9.33138 9.16675 9.70448 9.16675 10.1647C9.16675 10.625 9.53984 10.998 10.0001 10.998Z" stroke="#98A2B3" stroke-width="1.66667" stroke-linecap="round" stroke-linejoin="round"/>
<path d="M10.0001 5.16471C10.4603 5.16471 10.8334 4.79162 10.8334 4.33138C10.8334 3.87114 10.4603 3.49805 10.0001 3.49805C9.53984 3.49805 9.16675 3.87114 9.16675 4.33138C9.16675 4.79162 9.53984 5.16471 10.0001 5.16471Z" stroke="#98A2B3" stroke-width="1.66667" stroke-linecap="round" stroke-linejoin="round"/>
<path d="M10.0001 16.8314C10.4603 16.8314 10.8334 16.4583 10.8334 15.998C10.8334 15.5378 10.4603 15.1647 10.0001 15.1647C9.53984 15.1647 9.16675 15.5378 9.16675 15.998C9.16675 16.4583 9.53984 16.8314 10.0001 16.8314Z" stroke="#98A2B3" stroke-width="1.66667" stroke-linecap="round" stroke-linejoin="round"/>
</g>
</g>
</svg>
