<svg width="150" height="33" viewBox="0 0 150 33" fill="none" xmlns="http://www.w3.org/2000/svg">
<g clip-path="url(#clip0_465_7893)">
<mask id="mask0_465_7893" style="mask-type:luminance" maskUnits="userSpaceOnUse" x="54" y="0" width="44" height="28">
<path d="M56.1897 7.18212C55.2472 8.8364 54.6579 10.6681 54.4591 12.5616C54.2603 14.4552 54.4562 16.3693 55.0345 18.1833C56.7345 22.3978 59.8358 25.5331 65.3337 26.8271C66.3091 27.058 67.3097 27.1654 68.3119 27.1466C72.2199 27.1152 75.2374 25.2031 76.7566 24.0453L94.8195 7.67456L96.5849 9.42951L97.2476 2.14778L89.7694 2.45424L91.7234 4.40826L74.6507 19.878C72.1152 22.3533 69.1815 23.2019 65.9335 22.7593C61.2764 21.6303 58.754 18.6338 58.4685 13.6702C58.6702 9.63381 60.7813 7.10616 63.8695 5.3486C67.7147 3.64342 71.2036 4.46065 74.4306 7.31309L80.552 13.1647L83.187 10.5296L78.6582 6.03748C76.9697 4.05722 74.8422 2.49841 72.4452 1.48509C71.7825 1.20744 69.7709 0.382357 67.6256 0.306396H67.2956C61.1821 0.306396 56.7581 6.38323 56.1897 7.18736" fill="white"/>
</mask>
<g mask="url(#mask0_465_7893)">
<path d="M97.2476 0.301147H54.22V27.1859H97.2476V0.301147Z" fill="white"/>
</g>
<mask id="mask1_465_7893" style="mask-type:luminance" maskUnits="userSpaceOnUse" x="86" y="0" width="30" height="28">
<path d="M98.2247 0.882743L98.0361 4.75934C98.804 4.576 99.5853 4.45425 100.373 4.39526C100.916 4.35195 101.462 4.34408 102.007 4.37168C102.776 4.41744 103.54 4.53228 104.288 4.71482C105.598 5.0658 108.249 6.19997 109.674 8.94764C111.769 12.984 111.526 17.0178 107.193 21.0542C102.769 23.8018 98.8114 23.1496 95.1601 20.0719L89.2168 14.6237L86.4666 17.5705L93.4261 24.0454C97.1979 26.8088 100.786 27.5344 104.231 26.6648C109.993 25.2241 114.074 21.7719 115.14 14.7468C115.559 9.57366 113.262 5.65515 109.208 2.436C106.916 0.958703 104.577 0.261963 102.196 0.261963C100.848 0.264884 99.5089 0.474239 98.2247 0.882743Z" fill="white"/>
</mask>
<g mask="url(#mask1_465_7893)">
<path d="M115.557 0.248901H86.4666V27.5344H115.557V0.248901Z" fill="white"/>
</g>
<path d="M13.4191 8.99195C13.3013 7.99795 12.824 7.22629 11.9869 6.67697C11.1498 6.12765 10.1231 5.85299 8.9068 5.85299C8.01743 5.85299 7.23923 5.99686 6.5722 6.2846C5.91171 6.57234 5.39509 6.96798 5.02234 7.47152C4.65612 7.97506 4.47302 8.54726 4.47302 9.18814C4.47302 9.72437 4.60054 10.1854 4.85558 10.5712C5.11716 10.9505 5.45067 11.2677 5.85612 11.5227C6.26157 11.7712 6.68664 11.9772 7.13133 12.1407C7.57601 12.2977 7.98473 12.4252 8.35748 12.5233L10.3978 13.0726C10.921 13.2099 11.503 13.3996 12.1439 13.6415C12.7913 13.8835 13.4092 14.2137 13.9978 14.6323C14.5929 15.0443 15.0834 15.574 15.4692 16.2214C15.855 16.8688 16.0479 17.6633 16.0479 18.605C16.0479 19.6906 15.7635 20.6715 15.1945 21.5478C14.6321 22.4241 13.8082 23.1205 12.7226 23.6372C11.6436 24.1538 10.3324 24.4121 8.78909 24.4121C7.3504 24.4121 6.10462 24.1799 5.05176 23.7156C4.00544 23.2513 3.18147 22.6039 2.57983 21.7734C1.98474 20.9429 1.64795 19.9783 1.56948 18.8797H4.08065C4.14604 19.6383 4.40108 20.266 4.84577 20.7631C5.297 21.2535 5.86593 21.6197 6.55258 21.8617C7.24577 22.0971 7.99127 22.2148 8.78909 22.2148C9.7177 22.2148 10.5515 22.0644 11.2904 21.7636C12.0294 21.4562 12.6147 21.0312 13.0463 20.4884C13.4779 19.9391 13.6937 19.2982 13.6937 18.5658C13.6937 17.8988 13.5073 17.356 13.1346 16.9374C12.7618 16.5189 12.2714 16.1789 11.6632 15.9173C11.055 15.6557 10.3978 15.4268 9.69154 15.2306L7.21961 14.5244C5.65013 14.0731 4.40762 13.429 3.49209 12.5919C2.57656 11.7549 2.1188 10.6595 2.1188 9.30585C2.1188 8.18105 2.42288 7.20013 3.03106 6.36307C3.64577 5.51948 4.46975 4.86553 5.50299 4.40122C6.54277 3.93038 7.70353 3.69496 8.98527 3.69496C10.2801 3.69496 11.431 3.92711 12.4381 4.39141C13.4452 4.84918 14.243 5.47697 14.8316 6.27479C15.4267 7.07261 15.7406 7.97833 15.7733 8.99195H13.4191ZM20.0477 24.059V3.96961H26.8357C28.4117 3.96961 29.7 4.25408 30.7005 4.82302C31.7076 5.38542 32.4531 6.14727 32.937 7.10858C33.4209 8.06988 33.6629 9.14236 33.6629 10.326C33.6629 11.5097 33.4209 12.5854 32.937 13.5533C32.4596 14.5211 31.7207 15.2928 30.7201 15.8682C29.7196 16.4372 28.4378 16.7216 26.8749 16.7216H22.0095V14.5636H26.7964C27.8754 14.5636 28.7419 14.3772 29.3959 14.0045C30.0498 13.6317 30.5239 13.1282 30.8182 12.4939C31.119 11.853 31.2694 11.1304 31.2694 10.326C31.2694 9.52165 31.119 8.80231 30.8182 8.16797C30.5239 7.53364 30.0466 7.03664 29.3861 6.67697C28.7256 6.31076 27.8493 6.12765 26.7572 6.12765H22.4804V24.059H20.0477ZM37.5817 24.059V3.96961H44.3697C45.9392 3.96961 47.2275 4.23773 48.2345 4.77397C49.2416 5.30367 49.9871 6.03283 50.471 6.96144C50.955 7.89005 51.1969 8.94617 51.1969 10.1298C51.1969 11.3135 50.955 12.3631 50.471 13.2786C49.9871 14.1941 49.2449 14.9135 48.2443 15.4366C47.2438 15.9532 45.9653 16.2116 44.4089 16.2116H38.9157V14.0143H44.3305C45.4029 14.0143 46.2661 13.8573 46.9201 13.5434C47.5806 13.2295 48.058 12.7849 48.3522 12.2094C48.6531 11.6274 48.8035 10.9342 48.8035 10.1298C48.8035 9.32547 48.6531 8.62247 48.3522 8.02084C48.0514 7.4192 47.5708 6.9549 46.9103 6.62792C46.2498 6.29441 45.3768 6.12765 44.2912 6.12765H40.0144V24.059H37.5817ZM47.0378 15.0344L51.9817 24.059H49.1566L44.2912 15.0344H47.0378Z" fill="white"/>
<path d="M129.916 8.99195C129.798 7.99795 129.321 7.22629 128.484 6.67697C127.647 6.12765 126.62 5.85299 125.404 5.85299C124.514 5.85299 123.736 5.99686 123.069 6.2846C122.409 6.57234 121.892 6.96798 121.519 7.47152C121.153 7.97506 120.97 8.54726 120.97 9.18814C120.97 9.72437 121.098 10.1854 121.353 10.5712C121.614 10.9505 121.948 11.2677 122.353 11.5227C122.759 11.7712 123.184 11.9772 123.628 12.1407C124.073 12.2977 124.482 12.4252 124.855 12.5233L126.895 13.0726C127.418 13.2099 128 13.3996 128.641 13.6415C129.288 13.8835 129.906 14.2137 130.495 14.6323C131.09 15.0443 131.58 15.574 131.966 16.2214C132.352 16.8688 132.545 17.6633 132.545 18.605C132.545 19.6906 132.261 20.6715 131.692 21.5478C131.129 22.4241 130.305 23.1205 129.22 23.6372C128.141 24.1538 126.829 24.4121 125.286 24.4121C123.847 24.4121 122.602 24.1799 121.549 23.7156C120.503 23.2513 119.679 22.6039 119.077 21.7734C118.482 20.9429 118.145 19.9783 118.067 18.8797H120.578C120.643 19.6383 120.898 20.266 121.343 20.7631C121.794 21.2535 122.363 21.6197 123.05 21.8617C123.743 22.0971 124.488 22.2148 125.286 22.2148C126.215 22.2148 127.049 22.0644 127.788 21.7636C128.526 21.4562 129.112 21.0312 129.543 20.4884C129.975 19.9391 130.191 19.2982 130.191 18.5658C130.191 17.8988 130.004 17.356 129.632 16.9374C129.259 16.5189 128.768 16.1789 128.16 15.9173C127.552 15.6557 126.895 15.4268 126.189 15.2306L123.717 14.5244C122.147 14.0731 120.905 13.429 119.989 12.5919C119.074 11.7549 118.616 10.6595 118.616 9.30585C118.616 8.18105 118.92 7.20013 119.528 6.36307C120.143 5.51948 120.967 4.86553 122 4.40122C123.04 3.93038 124.201 3.69496 125.482 3.69496C126.777 3.69496 127.928 3.92711 128.935 4.39141C129.942 4.84918 130.74 5.47697 131.329 6.27479C131.924 7.07261 132.238 7.97833 132.27 8.99195H129.916ZM135.446 6.12765V3.96961H150.513V6.12765H144.196V24.059H141.763V6.12765H135.446Z" fill="white"/>
</g>
<defs>
<clipPath id="clip0_465_7893">
<rect width="149.828" height="32.0867" fill="white"/>
</clipPath>
</defs>
</svg>
