<svg width="91" height="40" viewBox="0 0 91 40" fill="none" xmlns="http://www.w3.org/2000/svg">
<g id="Layer 2">
<g id="Layer 3">
<g id="Clip path group">
<mask id="mask0_670_5633" style="mask-type:luminance" maskUnits="userSpaceOnUse" x="0" y="0" width="64" height="40">
<g id="clip-path">
<path id="Vector" d="M3.01696 10.2662C1.6214 12.7149 0.749021 15.4264 0.454959 18.2295C0.160898 21.0325 0.451554 23.866 1.30855 26.551C3.82415 32.789 8.41255 37.4323 16.5588 39.3444C18.0028 39.6851 19.4836 39.8444 20.967 39.8186C26.7466 39.7676 31.2135 36.9386 33.4588 35.2262C42.3744 27.1544 51.286 19.076 60.1938 10.9911L62.7956 13.5733L63.7791 2.81351L52.7254 3.26804L55.6132 6.15588L30.3515 29.0587C26.5977 32.7224 22.2561 33.9763 17.4483 33.3062C10.5559 31.637 6.81778 27.1975 6.39851 19.8545C6.69631 13.879 9.82317 10.1369 14.3959 7.53514C20.0854 5.01563 25.2615 6.22249 30.0263 10.4465L39.0895 19.11L43.0078 15.1916L36.2761 8.56959C33.7768 5.63803 30.6278 3.33029 27.0797 1.83C26.0961 1.41857 23.1221 0.199961 19.9443 0.0863279L19.4545 0.0784912C10.407 0.0784912 3.85941 9.09074 3.01696 10.2662Z" fill="white"/>
</g>
</mask>
<g mask="url(#mask0_670_5633)">
<g id="Group">
<path id="Vector_2" d="M63.7946 0.0784912H0.101562V39.8734H63.7946V0.0784912Z" fill="url(#paint0_linear_670_5633)"/>
</g>
</g>
</g>
<g id="Clip path group_2">
<mask id="mask1_670_5633" style="mask-type:luminance" maskUnits="userSpaceOnUse" x="47" y="0" width="44" height="40">
<g id="clip-path-2">
<path id="Vector_3" d="M65.2482 0.940408L64.97 6.66122C66.1056 6.38915 67.2614 6.20963 68.426 6.12441C69.2302 6.0599 70.0377 6.04681 70.8436 6.08522C71.9797 6.1573 73.1073 6.32907 74.2134 6.59853C76.1726 7.11967 80.091 8.79673 82.1873 12.8679C85.2828 18.8434 84.9301 24.815 78.5158 30.7905C71.9682 34.8735 66.0946 33.8939 60.7029 29.3486L51.9061 21.2767L47.835 25.6418L58.1363 35.2261C63.72 39.3169 69.0294 40.3905 74.1272 39.1014C82.6692 36.9698 88.6996 31.8602 90.2787 21.4687C90.8978 13.8083 87.5006 8.00914 81.4977 3.24441C78.1043 1.05404 74.6444 0 71.1179 0C69.122 0.0097522 67.1396 0.326942 65.2403 0.940408" fill="white"/>
</g>
</mask>
<g mask="url(#mask1_670_5633)">
<g id="Group_2">
<path id="Vector_4" d="M90.8978 0H47.835V40.3905H90.8978V0Z" fill="url(#paint1_linear_670_5633)"/>
</g>
</g>
</g>
</g>
</g>
<defs>
<linearGradient id="paint0_linear_670_5633" x1="-3.13501" y1="20.1462" x2="32.7376" y2="20.1462" gradientUnits="userSpaceOnUse">
<stop stop-color="#1E7900"/>
<stop offset="0.69" stop-color="#2FAA07"/>
<stop offset="1" stop-color="#2FAA07"/>
</linearGradient>
<linearGradient id="paint1_linear_670_5633" x1="20.1125" y1="20.6616" x2="62.6268" y2="20.6616" gradientUnits="userSpaceOnUse">
<stop stop-color="#1E7900"/>
<stop offset="1" stop-color="#2FAA07"/>
</linearGradient>
</defs>
</svg>
