<svg width="215" height="46" viewBox="0 0 215 46" fill="none" xmlns="http://www.w3.org/2000/svg">
<g clip-path="url(#clip0_496_16295)">
<mask id="mask0_496_16295" style="mask-type:luminance" maskUnits="userSpaceOnUse" x="78" y="0" width="62" height="39">
<path d="M80.6563 10.2965C79.3051 12.6681 78.4604 15.2941 78.1753 18.0086C77.8903 20.7232 78.1712 23.4674 79.0003 26.0679C81.4374 32.1099 85.8834 36.6047 93.7654 38.4597C95.1637 38.7908 96.5982 38.9448 98.0349 38.9179C103.638 38.8728 107.963 36.1316 110.141 34.4718L136.037 11.0024L138.567 13.5184L139.518 3.07917L128.797 3.51851L131.598 6.31982L107.122 28.4975C103.487 32.046 99.2816 33.2627 94.6253 32.6281C87.9487 31.0096 84.3326 26.7138 83.9232 19.5979C84.2124 13.8112 87.239 10.1876 91.6663 7.6679C97.1788 5.22333 102.181 6.39492 106.807 10.4842L115.583 18.8731L119.36 15.0955L112.868 8.65549C110.447 5.81657 107.397 3.58183 103.96 2.12913C103.01 1.73109 100.127 0.548229 97.0511 0.439331H96.5779C87.8135 0.439331 81.4712 9.15117 80.6563 10.304" fill="white"/>
</mask>
<g mask="url(#mask0_496_16295)">
<path d="M139.518 0.431763H77.8325V38.9741H139.518V0.431763Z" fill="url(#paint0_linear_496_16295)"/>
</g>
<mask id="mask1_496_16295" style="mask-type:luminance" maskUnits="userSpaceOnUse" x="124" y="0" width="42" height="39">
<path d="M140.918 1.26545L140.648 6.823C141.749 6.56015 142.869 6.38561 143.997 6.30104C144.777 6.23896 145.56 6.22767 146.341 6.26724C147.443 6.33284 148.538 6.49748 149.611 6.75916C151.489 7.26235 155.289 8.88831 157.332 12.8274C160.336 18.614 159.987 24.3969 153.776 30.1835C147.433 34.1226 141.759 33.1876 136.525 28.7753L128.004 20.9647L124.062 25.1892L134.039 34.4718C139.446 38.4335 144.591 39.4736 149.529 38.2269C157.79 36.1616 163.64 31.2124 165.169 21.1412C165.769 13.7249 162.476 8.10724 156.663 3.49222C153.378 1.37435 150.024 0.375488 146.611 0.375488C144.679 0.379676 142.759 0.679811 140.918 1.26545Z" fill="white"/>
</mask>
<g mask="url(#mask1_496_16295)">
<path d="M165.766 0.356812H124.062V39.4737H165.766V0.356812Z" fill="url(#paint1_linear_496_16295)"/>
</g>
<path d="M19.3398 12.1834C19.1711 10.7584 18.4867 9.65212 17.2867 8.86461C16.0866 8.0771 14.6147 7.68335 12.871 7.68335C11.596 7.68335 10.4803 7.8896 9.52405 8.30211C8.57716 8.71461 7.83653 9.28181 7.30215 10.0037C6.77714 10.7256 6.51464 11.5459 6.51464 12.4647C6.51464 13.2334 6.69745 13.8944 7.06308 14.4475C7.43808 14.9913 7.91622 15.4459 8.49747 15.8116C9.07873 16.1678 9.68811 16.4631 10.3256 16.6975C10.9631 16.9225 11.5491 17.1053 12.0835 17.246L15.0085 18.0335C15.7585 18.2304 16.5929 18.5022 17.5117 18.8491C18.4398 19.196 19.3257 19.6694 20.1695 20.2695C21.0226 20.8601 21.7258 21.6195 22.2789 22.5476C22.832 23.4757 23.1086 24.6148 23.1086 25.9648C23.1086 27.5211 22.7008 28.9274 21.8852 30.1836C21.0789 31.4399 19.8976 32.4384 18.3414 33.179C16.7945 33.9196 14.9147 34.2899 12.7022 34.2899C10.6397 34.2899 8.85373 33.9571 7.34433 33.2915C5.84431 32.6259 4.66305 31.6977 3.80054 30.5071C2.9474 29.3164 2.46458 27.9336 2.35208 26.3586H5.95213C6.04588 27.4461 6.41151 28.3461 7.04902 29.0586C7.6959 29.7618 8.51154 30.2868 9.49592 30.6337C10.4897 30.9712 11.5585 31.1399 12.7022 31.1399C14.0335 31.1399 15.2288 30.9243 16.2882 30.493C17.3476 30.0524 18.1867 29.443 18.8054 28.6649C19.4242 27.8774 19.7336 26.9586 19.7336 25.9086C19.7336 24.9523 19.4664 24.1742 18.932 23.5742C18.3976 22.9742 17.6945 22.4867 16.8226 22.1117C15.9507 21.7367 15.0085 21.4085 13.996 21.1273L10.4522 20.1148C8.20216 19.4679 6.42088 18.5444 5.10837 17.3444C3.79585 16.1444 3.13959 14.5741 3.13959 12.6334C3.13959 11.0209 3.57553 9.61462 4.44742 8.41461C5.32868 7.20522 6.50995 6.2677 7.99122 5.60207C9.48186 4.92706 11.1459 4.58956 12.9835 4.58956C14.8397 4.58956 16.4898 4.92237 17.9335 5.58801C19.3773 6.24426 20.5211 7.14428 21.3648 8.28804C22.218 9.43181 22.668 10.7303 22.7148 12.1834H19.3398ZM28.8427 33.7837V4.98331H38.574C40.8334 4.98331 42.6803 5.39113 44.1147 6.20676C45.5585 7.01303 46.6273 8.10523 47.321 9.48337C48.0148 10.8615 48.3617 12.399 48.3617 14.0959C48.3617 15.7928 48.0148 17.335 47.321 18.7226C46.6366 20.1101 45.5773 21.2163 44.1429 22.0413C42.7085 22.857 40.8709 23.2648 38.6303 23.2648H31.6552V20.171H38.5178C40.0647 20.171 41.3069 19.9038 42.2444 19.3694C43.1819 18.8351 43.8616 18.1132 44.2835 17.2038C44.7147 16.285 44.9304 15.2491 44.9304 14.0959C44.9304 12.9428 44.7147 11.9115 44.2835 11.0021C43.8616 10.0928 43.1772 9.38024 42.2303 8.86461C41.2835 8.33961 40.0272 8.0771 38.4615 8.0771H32.3302V33.7837H28.8427ZM53.9797 33.7837V4.98331H63.7111C65.9611 4.98331 67.808 5.36769 69.2518 6.13645C70.6956 6.89584 71.7643 7.94116 72.4581 9.27243C73.1518 10.6037 73.4987 12.1178 73.4987 13.8147C73.4987 15.5116 73.1518 17.0163 72.4581 18.3288C71.7643 19.6413 70.7002 20.6726 69.2658 21.4226C67.8315 22.1632 65.9986 22.5335 63.7673 22.5335H55.8922V19.3835H63.6548C65.1924 19.3835 66.4299 19.1585 67.3674 18.7085C68.3143 18.2585 68.9987 17.621 69.4205 16.796C69.8518 15.9616 70.0674 14.9678 70.0674 13.8147C70.0674 12.6615 69.8518 11.6537 69.4205 10.7912C68.9893 9.92869 68.3002 9.26306 67.3533 8.7943C66.4064 8.31617 65.1549 8.0771 63.5986 8.0771H57.4673V33.7837H53.9797ZM67.5361 20.846L74.6237 33.7837H70.5737L63.5986 20.846H67.5361Z" fill="black"/>
<path d="M186.352 12.1834C186.183 10.7584 185.498 9.65212 184.298 8.86461C183.098 8.0771 181.626 7.68335 179.883 7.68335C178.608 7.68335 177.492 7.8896 176.536 8.30211C175.589 8.71461 174.848 9.28181 174.314 10.0037C173.789 10.7256 173.526 11.5459 173.526 12.4647C173.526 13.2334 173.709 13.8944 174.075 14.4475C174.45 14.9913 174.928 15.4459 175.509 15.8116C176.09 16.1678 176.7 16.4631 177.337 16.6975C177.975 16.9225 178.561 17.1053 179.095 17.246L182.02 18.0335C182.77 18.2304 183.605 18.5022 184.523 18.8491C185.452 19.196 186.337 19.6694 187.181 20.2695C188.034 20.8601 188.737 21.6195 189.291 22.5476C189.844 23.4757 190.12 24.6148 190.12 25.9648C190.12 27.5211 189.713 28.9274 188.897 30.1836C188.091 31.4399 186.909 32.4384 185.353 33.179C183.806 33.9196 181.926 34.2899 179.714 34.2899C177.651 34.2899 175.865 33.9571 174.356 33.2915C172.856 32.6259 171.675 31.6977 170.812 30.5071C169.959 29.3164 169.476 27.9336 169.364 26.3586H172.964C173.058 27.4461 173.423 28.3461 174.061 29.0586C174.708 29.7618 175.523 30.2868 176.508 30.6337C177.501 30.9712 178.57 31.1399 179.714 31.1399C181.045 31.1399 182.241 30.9243 183.3 30.493C184.359 30.0524 185.198 29.443 185.817 28.6649C186.436 27.8774 186.745 26.9586 186.745 25.9086C186.745 24.9523 186.478 24.1742 185.944 23.5742C185.409 22.9742 184.706 22.4867 183.834 22.1117C182.962 21.7367 182.02 21.4085 181.008 21.1273L177.464 20.1148C175.214 19.4679 173.433 18.5444 172.12 17.3444C170.808 16.1444 170.151 14.5741 170.151 12.6334C170.151 11.0209 170.587 9.61462 171.459 8.41461C172.34 7.20522 173.522 6.2677 175.003 5.60207C176.494 4.92706 178.158 4.58956 179.995 4.58956C181.851 4.58956 183.501 4.92237 184.945 5.58801C186.389 6.24426 187.533 7.14428 188.377 8.28804C189.23 9.43181 189.68 10.7303 189.727 12.1834H186.352ZM194.279 8.0771V4.98331H215.88V8.0771H206.823V33.7837H203.336V8.0771H194.279Z" fill="black"/>
</g>
<defs>
<linearGradient id="paint0_linear_496_16295" x1="74.7772" y1="19.756" x2="109.519" y2="19.756" gradientUnits="userSpaceOnUse">
<stop stop-color="#1E7900"/>
<stop offset="0.69" stop-color="#2FAA07"/>
<stop offset="1" stop-color="#2FAA07"/>
</linearGradient>
<linearGradient id="paint1_linear_496_16295" x1="97.0837" y1="20.4637" x2="138.258" y2="20.4637" gradientUnits="userSpaceOnUse">
<stop stop-color="#1E7900"/>
<stop offset="1" stop-color="#2FAA07"/>
</linearGradient>
<clipPath id="clip0_496_16295">
<rect width="214.796" height="46" fill="white" transform="translate(0.102051)"/>
</clipPath>
</defs>
</svg>
