<svg width="20" height="20" viewBox="0 0 20 20" fill="none" xmlns="http://www.w3.org/2000/svg">
<g id="vuesax/bold/tick-circle">
<g id="tick-circle">
<path id="Vector" d="M10.1054 2.14502C5.7507 2.14502 2.20215 5.69357 2.20215 10.0482C2.20215 14.4029 5.7507 17.9515 10.1054 17.9515C14.4601 17.9515 18.0086 14.4029 18.0086 10.0482C18.0086 5.69357 14.4601 2.14502 10.1054 2.14502ZM13.8831 8.2305L9.40199 12.7116C9.29134 12.8223 9.14118 12.8855 8.98312 12.8855C8.82505 12.8855 8.67489 12.8223 8.56425 12.7116L6.32763 10.475C6.09844 10.2458 6.09844 9.86647 6.32763 9.63728C6.55683 9.40808 6.93618 9.40808 7.16537 9.63728L8.98312 11.455L13.0454 7.39276C13.2746 7.16357 13.6539 7.16357 13.8831 7.39276C14.1123 7.62196 14.1123 7.99341 13.8831 8.2305Z" fill="#2FAA07"/>
</g>
</g>
</svg>
