<svg width="25" height="25" viewBox="0 0 25 25" fill="none" xmlns="http://www.w3.org/2000/svg">
<path fill-rule="evenodd" clip-rule="evenodd" d="M4.45394 5.56193C3.49902 6.87626 3.49902 8.75112 3.49902 12.5009C3.49902 16.2506 3.49902 18.1255 4.45394 19.4398C4.76234 19.8643 5.13562 20.2375 5.5601 20.5459C6.87442 21.5009 8.74929 21.5009 12.499 21.5009C16.2488 21.5009 18.1236 21.5009 19.4379 20.5459C19.8624 20.2375 20.2357 19.8643 20.5441 19.4398C21.499 18.1255 21.499 16.2506 21.499 12.5009C21.499 8.75112 21.499 6.87626 20.5441 5.56193C20.2357 5.13745 19.8624 4.76417 19.4379 4.45577C18.1236 3.50085 16.2488 3.50085 12.499 3.50085C8.74929 3.50085 6.87442 3.50085 5.5601 4.45577C5.13562 4.76417 4.76234 5.13745 4.45394 5.56193ZM13.249 9.50085C13.249 9.08664 12.9132 8.75085 12.499 8.75085C12.0848 8.75085 11.749 9.08664 11.749 9.50085V11.7509H9.49902C9.08481 11.7509 8.74902 12.0866 8.74902 12.5009C8.74902 12.9151 9.08481 13.2509 9.49902 13.2509H11.749V15.5009C11.749 15.9151 12.0848 16.2509 12.499 16.2509C12.9132 16.2509 13.249 15.9151 13.249 15.5009V13.2509H15.499C15.9132 13.2509 16.249 12.9151 16.249 12.5009C16.249 12.0866 15.9132 11.7509 15.499 11.7509H13.249V9.50085Z" fill="#2FAA07"/>
</svg>
